<?xml version="1.0" standalone="no"?>
<!DOCTYPE svg PUBLIC "-//W3C//DTD SVG 20010904//EN"
 "http://www.w3.org/TR/2001/REC-SVG-20010904/DTD/svg10.dtd">
<svg version="1.0" xmlns="http://www.w3.org/2000/svg"
 width="937.000000pt" height="461.000000pt" viewBox="0 0 937.000000 461.000000"
 preserveAspectRatio="xMidYMid meet">

<g transform="translate(0.000000,461.000000) scale(0.100000,-0.100000)"
fill="#000000" stroke="none">
<path d="M3600 2355 l0 -455 50 0 50 0 0 200 0 200 190 0 190 0 0 45 0 45
-190 0 -190 0 0 160 0 160 210 0 210 0 0 50 0 50 -260 0 -260 0 0 -455z"/>
<path d="M4250 2360 l0 -450 50 0 50 0 0 450 0 450 -50 0 -50 0 0 -450z"/>
<path d="M5308 2638 l-3 -93 -52 -3 -53 -3 0 -39 0 -39 53 -3 52 -3 5 -230 c4
-203 7 -234 24 -262 28 -46 83 -73 149 -73 79 0 87 5 87 55 l0 43 -39 -5 c-57
-8 -88 3 -106 37 -13 25 -15 66 -13 232 l3 203 78 3 77 3 0 39 0 39 -77 3 -78
3 -3 93 -3 92 -49 0 -49 0 -3 -92z"/>
<path d="M5768 2638 l-3 -93 -57 -3 -58 -3 0 -39 0 -39 58 -3 57 -3 5 -235 c4
-209 7 -238 24 -263 28 -41 86 -67 150 -67 78 0 86 5 86 54 l0 43 -54 -5 c-48
-4 -57 -1 -80 21 l-26 26 0 216 0 215 75 0 75 0 0 40 0 40 -75 0 -75 0 0 95 0
95 -50 0 -49 0 -3 -92z"/>
<path d="M6359 2560 c-98 -16 -178 -82 -226 -185 -23 -50 -27 -74 -28 -145 0
-119 22 -179 94 -251 72 -72 131 -93 240 -87 108 7 179 46 250 140 11 15 7 19
-28 38 l-41 20 -33 -36 c-41 -48 -99 -74 -165 -74 -98 0 -173 54 -207 149 -30
86 -48 80 243 83 l257 3 -3 55 c-10 194 -164 320 -353 290z m174 -123 c40 -30
61 -63 72 -114 l7 -33 -201 0 c-132 0 -201 4 -201 10 0 23 33 87 58 114 42 44
78 57 158 54 60 -3 77 -8 107 -31z"/>
<path d="M7049 2540 c-37 -19 -89 -73 -89 -91 0 -6 -4 -7 -10 -4 -5 3 -10 26
-10 51 l0 44 -45 0 -45 0 0 -320 0 -320 50 0 50 0 0 203 c0 198 1 204 25 253
14 27 40 60 58 74 27 22 41 25 105 25 l73 0 -3 50 -3 50 -60 2 c-44 2 -70 -3
-96 -17z"/>
<path d="M4522 2288 c3 -247 4 -254 27 -295 39 -68 90 -97 178 -102 93 -4 145
14 202 71 l41 42 0 -47 0 -47 50 0 50 0 0 315 0 315 -49 0 -49 0 -4 -202 c-3
-189 -5 -206 -27 -251 -34 -69 -79 -100 -154 -105 -75 -6 -120 16 -148 70 -17
33 -19 60 -19 263 l0 225 -51 0 -50 0 3 -252z"/>
<path d="M2383 1890 c-62 -60 -113 -112 -113 -117 0 -4 39 -47 87 -95 l88 -88
235 0 235 0 -205 205 c-113 113 -207 205 -210 205 -3 -1 -56 -50 -117 -110z"/>
</g>
</svg>
